<svg height="308.0mm" width="292.0mm" xmlns="http://www.w3.org/2000/svg"><rect height="304.0mm" style="fill: #FFF; stroke: #000; stroke-width: 1mm" width="288.0mm" x="2mm" y="2mm"/><line stroke-width="1mm" stroke="black" x1="2mm" x2="290.0mm" y1="40.0mm" y2="40.0mm"/><line stroke-width="1mm" stroke="black" x1="2mm" x2="290.0mm" y1="78.0mm" y2="78.0mm"/><line stroke-width="1mm" stroke="black" x1="2mm" x2="290.0mm" y1="116.0mm" y2="116.0mm"/><line stroke-width="1mm" stroke="black" x1="2mm" x2="290.0mm" y1="154.0mm" y2="154.0mm"/><line stroke-width="1mm" stroke="black" x1="2mm" x2="290.0mm" y1="192.0mm" y2="192.0mm"/><line stroke-width="1mm" stroke="black" x1="2mm" x2="290.0mm" y1="230.0mm" y2="230.0mm"/><line stroke-width="1mm" stroke="black" x1="2mm" x2="290.0mm" y1="268.0mm" y2="268.0mm"/><line stroke-width="1mm" stroke="black" x1="38.0mm" x2="38.0mm" y1="2mm" y2="306.0mm"/><line stroke-width="1mm" stroke="black" x1="74.0mm" x2="74.0mm" y1="2mm" y2="306.0mm"/><line stroke-width="1mm" stroke="black" x1="110.0mm" x2="110.0mm" y1="2mm" y2="306.0mm"/><line stroke-width="1mm" stroke="black" x1="146.0mm" x2="146.0mm" y1="2mm" y2="306.0mm"/><line stroke-width="1mm" stroke="black" x1="182.0mm" x2="182.0mm" y1="2mm" y2="306.0mm"/><line stroke-width="1mm" stroke="black" x1="218.0mm" x2="218.0mm" y1="2mm" y2="306.0mm"/><line stroke-width="1mm" stroke="black" x1="254.0mm" x2="254.0mm" y1="2mm" y2="306.0mm"/><circle cx="74.0mm" cy="78.0mm" r="1.5mm" style="fill: #000"/>
<circle cx="74.0mm" cy="230.0mm" r="1.5mm" style="fill: #000"/>
<circle cx="218.0mm" cy="78.0mm" r="1.5mm" style="fill: #000"/>
<circle cx="218.0mm" cy="230.0mm" r="1.5mm" style="fill: #000"/>
<circle cx="146.0mm" cy="154.0mm" r="1.5mm" style="fill: #000"/>
</svg>